<svg xmlns="http://www.w3.org/2000/svg" width="24" height="24" viewBox="0 0 24 24">
  <g id="Group_11750" data-name="Group 11750" transform="translate(-252 -740)">
    <rect id="Rectangle" width="24" height="24" transform="translate(252 740)" fill="rgba(255,255,255,0)"/>
    <path id="bell_1_" data-name="bell (1)" d="M19.333,11.621,17.717,5.807a7.929,7.929,0,0,0-15.378.4L1.087,11.837a4.253,4.253,0,0,0,4.152,5.176h.948a4.253,4.253,0,0,0,8.336,0h.713a4.253,4.253,0,0,0,4.1-5.391Zm-8.978,7.092a2.552,2.552,0,0,1-2.4-1.7H12.75a2.552,2.552,0,0,1-2.4,1.7Zm6.912-4.41a2.532,2.532,0,0,1-2.032,1.008h-10a2.552,2.552,0,0,1-2.491-3.106L4,6.578a6.227,6.227,0,0,1,12.079-.316l1.616,5.815a2.532,2.532,0,0,1-.427,2.227Z" transform="translate(254.085 741.566)" fill="#92949f"/>
  </g>
</svg>
